<svg width="151" height="114" viewBox="0 0 151 114" fill="none" xmlns="http://www.w3.org/2000/svg">
<path d="M66.4107 13.2067C52.072 19.3383 41.318 32.4507 38.488 48.2043C27.9227 50.657 18.961 57.6377 13.9613 67.071C5.377 60.0903 0 49.525 0 37.7333C0 16.8857 16.8857 0 37.7333 0C49.242 0 59.5243 5.094 66.4107 13.2067Z" fill="white"/>
<path d="M150.933 80.1833C150.933 98.4179 136.151 113.2 117.917 113.2H47.1667C31.5357 113.2 18.8667 100.531 18.8667 84.9C18.8667 69.2689 31.5357 56.6 47.1667 56.6C47.1667 35.7617 64.0618 18.8666 84.9 18.8666C102.588 18.8666 117.322 31.0922 121.407 47.5157C137.981 49.2891 150.933 63.1467 150.933 80.1833Z" fill="white"/>
</svg>
